{
	"asset":{
		"generator":"Khronos glTF Blender I/O v3.5.30",
		"version":"2.0"
	},
	"extensionsUsed":[
		"KHR_materials_emissive_strength"
	],
	"scene":0,
	"scenes":[
		{
			"name":"Scene",
			"nodes":[
				0
			]
		}
	],
	"nodes":[
		{
			"mesh":0,
			"name":"Cube.003"
		}
	],
	"materials":[
		{
			"alphaCutoff":0.5,
			"alphaMode":"MASK",
			"doubleSided":true,
			"name":"Keyboard",
			"pbrMetallicRoughness":{
				"baseColorTexture":{
					"index":0
				},
				"metallicFactor":0,
				"roughnessFactor":0.6045454740524292
			}
		},
		{
			"doubleSided":true,
			"name":"Mouse.001",
			"pbrMetallicRoughness":{
				"baseColorTexture":{
					"index":1
				},
				"metallicFactor":0,
				"roughnessFactor":0.5
			}
		},
		{
			"doubleSided":true,
			"name":"Tower.001",
			"pbrMetallicRoughness":{
				"baseColorTexture":{
					"index":2
				},
				"metallicFactor":0,
				"roughnessFactor":0.5
			}
		},
		{
			"doubleSided":true,
			"name":"Monitor.001",
			"pbrMetallicRoughness":{
				"baseColorTexture":{
					"index":3
				},
				"metallicFactor":0,
				"roughnessFactor":0.5
			}
		},
		{
			"doubleSided":true,
			"emissiveFactor":[
				1,
				1,
				1
			],
			"emissiveTexture":{
				"index":4
			},
			"extensions":{
				"KHR_materials_emissive_strength":{
					"emissiveStrength":1.899999976158142
				}
			},
			"name":"Screen.001",
			"pbrMetallicRoughness":{
				"baseColorFactor":[
					0.0086342329159379,
					0.024678155779838562,
					0.010643922723829746,
					1
				],
				"metallicFactor":0,
				"roughnessFactor":0.08636362850666046
			}
		},
		{
			"doubleSided":true,
			"name":"Material.004",
			"pbrMetallicRoughness":{
				"baseColorFactor":[
					0.3712378442287445,
					0.428690642118454,
					0.51491779088974,
					1
				],
				"metallicFactor":0,
				"roughnessFactor":0.5
			}
		},
		{
			"doubleSided":true,
			"name":"Material.003",
			"pbrMetallicRoughness":{
				"baseColorFactor":[
					0.07227186858654022,
					0.06847818195819855,
					0.06480327248573303,
					1
				],
				"metallicFactor":0,
				"roughnessFactor":0.5
			}
		}
	],
	"meshes":[
		{
			"name":"Cube.013",
			"primitives":[
				{
					"attributes":{
						"POSITION":0,
						"TEXCOORD_0":1,
						"NORMAL":2
					},
					"indices":3,
					"material":0
				},
				{
					"attributes":{
						"POSITION":4,
						"TEXCOORD_0":5,
						"NORMAL":6
					},
					"indices":7,
					"material":1
				},
				{
					"attributes":{
						"POSITION":8,
						"TEXCOORD_0":9,
						"NORMAL":10
					},
					"indices":11,
					"material":2
				},
				{
					"attributes":{
						"POSITION":12,
						"TEXCOORD_0":13,
						"NORMAL":14
					},
					"indices":15,
					"material":3
				},
				{
					"attributes":{
						"POSITION":16,
						"TEXCOORD_0":17,
						"NORMAL":18
					},
					"indices":19,
					"material":4
				},
				{
					"attributes":{
						"POSITION":20,
						"TEXCOORD_0":21,
						"NORMAL":22
					},
					"indices":23,
					"material":5
				},
				{
					"attributes":{
						"POSITION":24,
						"TEXCOORD_0":25,
						"NORMAL":26
					},
					"indices":27,
					"material":6
				}
			]
		}
	],
	"textures":[
		{
			"sampler":0,
			"source":0
		},
		{
			"sampler":0,
			"source":1
		},
		{
			"sampler":0,
			"source":2
		},
		{
			"sampler":0,
			"source":3
		},
		{
			"sampler":0,
			"source":4
		}
	],
	"images":[
		{
			"bufferView":4,
			"mimeType":"image/png",
			"name":"Keyboard.png-KeyboardAlpha"
		},
		{
			"bufferView":9,
			"mimeType":"image/png",
			"name":"mouse"
		},
		{
			"bufferView":14,
			"mimeType":"image/png",
			"name":"Tower"
		},
		{
			"bufferView":19,
			"mimeType":"image/png",
			"name":"Monitor"
		},
		{
			"bufferView":24,
			"mimeType":"image/png",
			"name":"image_windowsXP (1) (3)"
		}
	],
	"accessors":[
		{
			"bufferView":0,
			"componentType":5126,
			"count":168,
			"max":[
				1,
				0.15699897706508636,
				0.34999996423721313
			],
			"min":[
				-1,
				-0.05000000074505806,
				-1.9500000476837158
			],
			"type":"VEC3"
		},
		{
			"bufferView":1,
			"componentType":5126,
			"count":168,
			"type":"VEC2"
		},
		{
			"bufferView":2,
			"componentType":5126,
			"count":168,
			"type":"VEC3"
		},
		{
			"bufferView":3,
			"componentType":5123,
			"count":330,
			"type":"SCALAR"
		},
		{
			"bufferView":5,
			"componentType":5126,
			"count":32,
			"max":[
				1.5,
				0.09000000357627869,
				0.8500001430511475
			],
			"min":[
				1.1999999284744263,
				-0.05000000074505806,
				0.35000014305114746
			],
			"type":"VEC3"
		},
		{
			"bufferView":6,
			"componentType":5126,
			"count":32,
			"type":"VEC2"
		},
		{
			"bufferView":7,
			"componentType":5126,
			"count":32,
			"type":"VEC3"
		},
		{
			"bufferView":8,
			"componentType":5123,
			"count":60,
			"type":"SCALAR"
		},
		{
			"bufferView":10,
			"componentType":5126,
			"count":24,
			"max":[
				1,
				0.44999998807907104,
				-0.75
			],
			"min":[
				-1,
				-0.04999999701976776,
				-2.6500000953674316
			],
			"type":"VEC3"
		},
		{
			"bufferView":11,
			"componentType":5126,
			"count":24,
			"type":"VEC2"
		},
		{
			"bufferView":12,
			"componentType":5126,
			"count":24,
			"type":"VEC3"
		},
		{
			"bufferView":13,
			"componentType":5123,
			"count":36,
			"type":"SCALAR"
		},
		{
			"bufferView":15,
			"componentType":5126,
			"count":88,
			"max":[
				1,
				1.9800002574920654,
				-0.75
			],
			"min":[
				-1,
				0.4500000476837158,
				-2.6712238788604736
			],
			"type":"VEC3"
		},
		{
			"bufferView":16,
			"componentType":5126,
			"count":88,
			"type":"VEC2"
		},
		{
			"bufferView":17,
			"componentType":5126,
			"count":88,
			"type":"VEC3"
		},
		{
			"bufferView":18,
			"componentType":5123,
			"count":174,
			"type":"SCALAR"
		},
		{
			"bufferView":20,
			"componentType":5126,
			"count":13,
			"max":[
				0.8605517148971558,
				1.7994472980499268,
				-0.8219020366668701
			],
			"min":[
				-0.8605517148971558,
				0.6356921195983887,
				-1.0203149318695068
			],
			"type":"VEC3"
		},
		{
			"bufferView":21,
			"componentType":5126,
			"count":13,
			"type":"VEC2"
		},
		{
			"bufferView":22,
			"componentType":5126,
			"count":13,
			"type":"VEC3"
		},
		{
			"bufferView":23,
			"componentType":5123,
			"count":60,
			"type":"SCALAR"
		},
		{
			"bufferView":25,
			"componentType":5126,
			"count":793,
			"max":[
				1.568494200706482,
				0.016930509358644485,
				0.3561610281467438
			],
			"min":[
				1.0111515522003174,
				-0.04722115397453308,
				-0.45284709334373474
			],
			"type":"VEC3"
		},
		{
			"bufferView":26,
			"componentType":5126,
			"count":793,
			"type":"VEC2"
		},
		{
			"bufferView":27,
			"componentType":5126,
			"count":793,
			"type":"VEC3"
		},
		{
			"bufferView":28,
			"componentType":5123,
			"count":4320,
			"type":"SCALAR"
		},
		{
			"bufferView":29,
			"componentType":5126,
			"count":192,
			"max":[
				1.0153310298919678,
				0.030111592262983322,
				-0.3482185900211334
			],
			"min":[
				0.9986910820007324,
				-0.019295189529657364,
				-0.3976253569126129
			],
			"type":"VEC3"
		},
		{
			"bufferView":30,
			"componentType":5126,
			"count":192,
			"type":"VEC2"
		},
		{
			"bufferView":31,
			"componentType":5126,
			"count":192,
			"type":"VEC3"
		},
		{
			"bufferView":32,
			"componentType":5123,
			"count":372,
			"type":"SCALAR"
		}
	],
	"bufferViews":[
		{
			"buffer":0,
			"byteLength":2016,
			"byteOffset":0,
			"target":34962
		},
		{
			"buffer":0,
			"byteLength":1344,
			"byteOffset":2016,
			"target":34962
		},
		{
			"buffer":0,
			"byteLength":2016,
			"byteOffset":3360,
			"target":34962
		},
		{
			"buffer":0,
			"byteLength":660,
			"byteOffset":5376,
			"target":34963
		},
		{
			"buffer":0,
			"byteLength":177795,
			"byteOffset":6036
		},
		{
			"buffer":0,
			"byteLength":384,
			"byteOffset":183832,
			"target":34962
		},
		{
			"buffer":0,
			"byteLength":256,
			"byteOffset":184216,
			"target":34962
		},
		{
			"buffer":0,
			"byteLength":384,
			"byteOffset":184472,
			"target":34962
		},
		{
			"buffer":0,
			"byteLength":120,
			"byteOffset":184856,
			"target":34963
		},
		{
			"buffer":0,
			"byteLength":40546,
			"byteOffset":184976
		},
		{
			"buffer":0,
			"byteLength":288,
			"byteOffset":225524,
			"target":34962
		},
		{
			"buffer":0,
			"byteLength":192,
			"byteOffset":225812,
			"target":34962
		},
		{
			"buffer":0,
			"byteLength":288,
			"byteOffset":226004,
			"target":34962
		},
		{
			"buffer":0,
			"byteLength":72,
			"byteOffset":226292,
			"target":34963
		},
		{
			"buffer":0,
			"byteLength":199529,
			"byteOffset":226364
		},
		{
			"buffer":0,
			"byteLength":1056,
			"byteOffset":425896,
			"target":34962
		},
		{
			"buffer":0,
			"byteLength":704,
			"byteOffset":426952,
			"target":34962
		},
		{
			"buffer":0,
			"byteLength":1056,
			"byteOffset":427656,
			"target":34962
		},
		{
			"buffer":0,
			"byteLength":348,
			"byteOffset":428712,
			"target":34963
		},
		{
			"buffer":0,
			"byteLength":149602,
			"byteOffset":429060
		},
		{
			"buffer":0,
			"byteLength":156,
			"byteOffset":578664,
			"target":34962
		},
		{
			"buffer":0,
			"byteLength":104,
			"byteOffset":578820,
			"target":34962
		},
		{
			"buffer":0,
			"byteLength":156,
			"byteOffset":578924,
			"target":34962
		},
		{
			"buffer":0,
			"byteLength":120,
			"byteOffset":579080,
			"target":34963
		},
		{
			"buffer":0,
			"byteLength":106340,
			"byteOffset":579200
		},
		{
			"buffer":0,
			"byteLength":9516,
			"byteOffset":685540,
			"target":34962
		},
		{
			"buffer":0,
			"byteLength":6344,
			"byteOffset":695056,
			"target":34962
		},
		{
			"buffer":0,
			"byteLength":9516,
			"byteOffset":701400,
			"target":34962
		},
		{
			"buffer":0,
			"byteLength":8640,
			"byteOffset":710916,
			"target":34963
		},
		{
			"buffer":0,
			"byteLength":2304,
			"byteOffset":719556,
			"target":34962
		},
		{
			"buffer":0,
			"byteLength":1536,
			"byteOffset":721860,
			"target":34962
		},
		{
			"buffer":0,
			"byteLength":2304,
			"byteOffset":723396,
			"target":34962
		},
		{
			"buffer":0,
			"byteLength":744,
			"byteOffset":725700,
			"target":34963
		}
	],
	"samplers":[
		{
			"magFilter":9729,
			"minFilter":9987
		}
	],
	"buffers":[
		{
			"byteLength":726444,
			"uri":"data:application/octet-stream;base64,"
		}
	]
}
