{
	"asset":{
		"generator":"Khronos glTF Blender I/O v3.5.30",
		"version":"2.0"
	},
	"scene":0,
	"scenes":[
		{
			"name":"Scene",
			"nodes":[
				0
			]
		}
	],
	"nodes":[
		{
			"mesh":0,
			"name":"Cube",
			"rotation":[
				-0.7114510536193848,
				0,
				0.7027356624603271,
				3.10985086571236e-08
			],
			"scale":[
				0.06059569865465164,
				0.025321966037154198,
				0.27761873602867126
			],
			"translation":[
				0.0014387555420398712,
				-0.00015350105240941048,
				0.004831423982977867
			]
		}
	],
	"materials":[
		{
			"doubleSided":true,
			"name":"Material.002",
			"pbrMetallicRoughness":{
				"baseColorFactor":[
					0.41198843717575073,
					0.41198843717575073,
					0.41198843717575073,
					1
				],
				"metallicFactor":0.4727272689342499,
				"roughnessFactor":0.1727272868156433
			}
		},
		{
			"doubleSided":true,
			"name":"Material.001",
			"pbrMetallicRoughness":{
				"baseColorTexture":{
					"index":0
				},
				"metallicFactor":0,
				"roughnessFactor":0.5
			}
		},
		{
			"alphaMode":"BLEND",
			"name":"Glass",
			"normalTexture":{
				"index":1
			},
			"occlusionTexture":{
				"index":2
			},
			"pbrMetallicRoughness":{
				"baseColorTexture":{
					"index":3
				},
				"metallicRoughnessTexture":{
					"index":2
				}
			}
		},
		{
			"doubleSided":true,
			"name":"Material.004",
			"pbrMetallicRoughness":{
				"baseColorFactor":[
					0.41198843717575073,
					0.41198843717575073,
					0.41198843717575073,
					1
				],
				"metallicFactor":0.4727272689342499,
				"roughnessFactor":0.1727272868156433
			}
		}
	],
	"meshes":[
		{
			"name":"Cube.002",
			"primitives":[
				{
					"attributes":{
						"POSITION":0,
						"TEXCOORD_0":1,
						"NORMAL":2
					},
					"indices":3,
					"material":0
				},
				{
					"attributes":{
						"POSITION":4,
						"TEXCOORD_0":5,
						"NORMAL":6
					},
					"indices":7,
					"material":1
				},
				{
					"attributes":{
						"POSITION":8,
						"TEXCOORD_0":9,
						"NORMAL":10
					},
					"indices":11,
					"material":2
				},
				{
					"attributes":{
						"POSITION":12,
						"TEXCOORD_0":13,
						"NORMAL":14
					},
					"indices":15,
					"material":3
				}
			]
		}
	],
	"textures":[
		{
			"sampler":0,
			"source":0
		},
		{
			"sampler":0,
			"source":1
		},
		{
			"sampler":0,
			"source":2
		},
		{
			"sampler":0,
			"source":3
		}
	],
	"images":[
		{
			"bufferView":8,
			"mimeType":"image/jpeg",
			"name":"lamp_seabed"
		},
		{
			"bufferView":13,
			"mimeType":"image/png",
			"name":"Image_2"
		},
		{
			"bufferView":14,
			"mimeType":"image/png",
			"name":"Image_1"
		},
		{
			"bufferView":15,
			"mimeType":"image/png",
			"name":"Image_0"
		}
	],
	"accessors":[
		{
			"bufferView":0,
			"componentType":5126,
			"count":1624,
			"max":[
				1.6803849935531616,
				-0.07680881023406982,
				1.0610146522521973
			],
			"min":[
				-1.6557421684265137,
				-5.293618679046631,
				-1.1127017736434937
			],
			"type":"VEC3"
		},
		{
			"bufferView":1,
			"componentType":5126,
			"count":1624,
			"type":"VEC2"
		},
		{
			"bufferView":2,
			"componentType":5126,
			"count":1624,
			"type":"VEC3"
		},
		{
			"bufferView":3,
			"componentType":5123,
			"count":3216,
			"type":"SCALAR"
		},
		{
			"bufferView":4,
			"componentType":5126,
			"count":98,
			"max":[
				1.1270982027053833,
				-5.446505069732666,
				0.9319597482681274
			],
			"min":[
				-1.1006160974502563,
				-19.18210792541504,
				-0.9836525917053223
			],
			"type":"VEC3"
		},
		{
			"bufferView":5,
			"componentType":5126,
			"count":98,
			"type":"VEC2"
		},
		{
			"bufferView":6,
			"componentType":5126,
			"count":98,
			"type":"VEC3"
		},
		{
			"bufferView":7,
			"componentType":5123,
			"count":180,
			"type":"SCALAR"
		},
		{
			"bufferView":9,
			"componentType":5126,
			"count":80,
			"max":[
				1.4853527545928955,
				-5.096237659454346,
				1.0286072492599487
			],
			"min":[
				-1.449088215827942,
				-18.894744873046875,
				-1.0766061544418335
			],
			"type":"VEC3"
		},
		{
			"bufferView":10,
			"componentType":5126,
			"count":80,
			"type":"VEC2"
		},
		{
			"bufferView":11,
			"componentType":5126,
			"count":80,
			"type":"VEC3"
		},
		{
			"bufferView":12,
			"componentType":5123,
			"count":138,
			"type":"SCALAR"
		},
		{
			"bufferView":16,
			"componentType":5126,
			"count":412,
			"max":[
				1.6818883419036865,
				-1.6639728546142578,
				1.0610153675079346
			],
			"min":[
				-1.8851288557052612,
				-19.937334060668945,
				-1.1127009391784668
			],
			"type":"VEC3"
		},
		{
			"bufferView":17,
			"componentType":5126,
			"count":412,
			"type":"VEC2"
		},
		{
			"bufferView":18,
			"componentType":5126,
			"count":412,
			"type":"VEC3"
		},
		{
			"bufferView":19,
			"componentType":5123,
			"count":732,
			"type":"SCALAR"
		}
	],
	"bufferViews":[
		{
			"buffer":0,
			"byteLength":19488,
			"byteOffset":0,
			"target":34962
		},
		{
			"buffer":0,
			"byteLength":12992,
			"byteOffset":19488,
			"target":34962
		},
		{
			"buffer":0,
			"byteLength":19488,
			"byteOffset":32480,
			"target":34962
		},
		{
			"buffer":0,
			"byteLength":6432,
			"byteOffset":51968,
			"target":34963
		},
		{
			"buffer":0,
			"byteLength":1176,
			"byteOffset":58400,
			"target":34962
		},
		{
			"buffer":0,
			"byteLength":784,
			"byteOffset":59576,
			"target":34962
		},
		{
			"buffer":0,
			"byteLength":1176,
			"byteOffset":60360,
			"target":34962
		},
		{
			"buffer":0,
			"byteLength":360,
			"byteOffset":61536,
			"target":34963
		},
		{
			"buffer":0,
			"byteLength":90803,
			"byteOffset":61896
		},
		{
			"buffer":0,
			"byteLength":960,
			"byteOffset":152700,
			"target":34962
		},
		{
			"buffer":0,
			"byteLength":640,
			"byteOffset":153660,
			"target":34962
		},
		{
			"buffer":0,
			"byteLength":960,
			"byteOffset":154300,
			"target":34962
		},
		{
			"buffer":0,
			"byteLength":276,
			"byteOffset":155260,
			"target":34963
		},
		{
			"buffer":0,
			"byteLength":569215,
			"byteOffset":155536
		},
		{
			"buffer":0,
			"byteLength":5357,
			"byteOffset":724752
		},
		{
			"buffer":0,
			"byteLength":6528,
			"byteOffset":730112
		},
		{
			"buffer":0,
			"byteLength":4944,
			"byteOffset":736640,
			"target":34962
		},
		{
			"buffer":0,
			"byteLength":3296,
			"byteOffset":741584,
			"target":34962
		},
		{
			"buffer":0,
			"byteLength":4944,
			"byteOffset":744880,
			"target":34962
		},
		{
			"buffer":0,
			"byteLength":1464,
			"byteOffset":749824,
			"target":34963
		}
	],
	"samplers":[
		{
			"magFilter":9729,
			"minFilter":9987
		}
	],
	"buffers":[
		{
			"byteLength":751288,
			"uri":"data:application/octet-stream;base64,"
		}
	]
}
